<svg xmlns="http://www.w3.org/2000/svg" viewBox="0 0 2048 2048"><circle cx="1024" cy="1024" r="1024" fill="#f40"/><g fill="#fff"><path d="m673 1128 8 42c1 4 4 6 7 7l112 40c5 2 8 4 10 7l22 29 7 8 1-1 3-101zm525 133h2l6-7 23-30 8-5 91-33 28-10c3-16 7-31 9-48l-170 32zm-59-246 15 6a20 20 0 0 0 17 1l70-23c17-5 35-13 53-16s37 0 55 0h3l9-1-4-6-16-22c-3-3-4-7-1-10l9-2 11 4c-4-5-8-9-13-12l-15-12a9 9 0 0 1-3-10c1-4 5-5 9-6h23c5 1 2-1 1-2-6-3-11-8-17-10l-42-15-9-1a1970 1970 0 0 0-54 5c-4 0-7 1-10 4a8611 8611 0 0 0-81 71c-3 2-5 5-5 8zm-460-35c-3 3-3 2 1 3h10l46-1 18 3 115 37c3 1 8 3 11 2 7-2 13-6 20-9l-4-46c0-6-3-10-7-13a5488 5488 0 0 1-76-67c-5-4-11-7-18-7l-48-4-11 1-41 15a44 44 0 0 0-16 11l22 1c4 0 8 1 9 6 2 4 0 8-3 11l-21 16-7 6 13-3c2 0 6 1 7 3 2 2 1 5 1 8l-5 7zm662-374 158 110 2-5 27-109v-10l-13-85-2-7zM542 716l157-111-171-106-1 5-14 86c-1 4 0 10 1 14l25 101zm940 327a1607 1607 0 0 0-106 23l15 37c3 5 6 9 11 12 33 15 64 31 96 47l7 4c4 2 10 11 1 9l-30-5 3 11 21 84c1 5 3 9-2 13l-9-4 1 9 7 68c0 5 2 9-3 14l-11-7c-6 15-31 127-30 136 6-17 20-25 32-35l78-64a76 76 0 0 0 15-17c17-26 33-53 51-79 6-10 7-20 5-31l-6 6-6-7-2-5-32-95c-3-10-5-18-18-20-2-1-4 0-5-6 11-1 21 6 33 4l-93-62c5-6 13-9 20-13l21-12a33 33 0 0 0-13-1l-59 4-7-1-1-3zm-1006 99c-3 3-4 2-7 4a22 22 0 0 0-16 15l-34 102-3 7c-2 4-4 4-8 0l-2-3c-3 17-3 17 6 31l51 81a57 57 0 0 0 12 13l89 73c8 7 17 14 22 25l4 5-32-138-15 8c0-32 6-62 8-92l-9 4c-6-4-3-9-2-14l22-86 1-7-7 1-19 3c-2 0-9 2-9 0l6-8 7-4 97-48c3-2 7-5 8-8 7-13 12-26 18-41l-106-24c4 8 13 9 15 18-27 1-53-3-79-2l21 12c7 4 15 7 20 13l-93 62 1 2 16-3c5-1 10-2 17-1m208 337 2 7 38 101a18 18 0 0 0 9 10c33 18 65 35 97 54a48 48 0 0 0 23 6l95 3c29 1 59 3 88 2l156-6c6 0 11-1 16-4l100-55c5-2 8-6 10-11l37-99 3-9-11 5h-7v-7l5-12 8-20c-4 1-6 3-9 5l-9 8-2-24-8 14c-3-5-5-7-6-11l-35-72a25 25 0 0 0-9-11 8212 8212 0 0 1-87-59 54 54 0 0 1-12-12l-86-114-7-8-3 16c-1 3-1 8-5 10-5-1-5-6-7-9l-3-8-12 24c-11-7-15-19-25-28-2 10 0 20-4 28-1 2-2 0-3 0-9-12-10-27-18-40l-2 4-8 24-4 6-7-5-6-14-4 10-4 8c-4-3-5-5-6-8l-4-18-8 9-84 113-10 10a8370 8370 0 0 1-88 60c-5 3-9 7-11 13l-35 72-6 10-7-12c-3 6 1 14-5 20l-15-12c3 15 13 26 13 42zm971-439 159-23 2 3-6 7-91 104-7 9h9l93 3 12 2c-4 10-11 16-17 23l-17 22a7116 7116 0 0 1-36 44 7116 7116 0 0 1-18 22l-19 24 9-1 75-19 10-2 5 1-2 6-7 7-371 320a70 70 0 0 1-26 15l-216 69a58 58 0 0 1-15 2c-43 2-87 3-130 6-37 2-74-2-111-3a4450 4450 0 0 1-94-5l-223-71a53 53 0 0 1-19-12 20708 20708 0 0 0-136-117l-240-207c-3-2-8-4-6-9s8-1 11-1l78 19 10 2-107-134 1-2 12-2 92-2 9-1-7-8-90-103a29 29 0 0 1-6-10c14-1 27 3 40 4l40 6 39 6 40 6c1-3 3-5 3-8l34-118c2-5 2-10 1-15l-58-305v-15l59-218 2-8 8 3 154 69 18 5 107 13c4 0 8 3 12 5l161 89c6 3 12 5 19 4l94-7c23-3 46 0 69 2l68 5c7 1 13-1 19-4l160-89c6-3 12-5 19-6l105-13c5 0 10-2 15-4l155-69 6-3 3 5 58 218a42 42 0 0 1 1 20l-58 301a39 39 0 0 0 1 19l33 114z"/><path d="M1021 1334h73c12 0 18 5 22 15l17 38 10 24a18 18 0 0 1-3 20l-59 63a30 30 0 0 1-12 7 682 682 0 0 1-43 12h-14l-42-11c-6-2-11-5-15-10a8023 8023 0 0 0-55-59c-7-7-8-15-4-24l25-58 5-9c3-6 8-8 15-8h63z"/></g></svg>
