<svg xmlns="http://www.w3.org/2000/svg" xmlns:xlink="http://www.w3.org/1999/xlink" width="1104.529" height="1104.529" viewBox="0 0 292.24 292.24"><defs><linearGradient xlink:href="#a" id="b" x1="-283.391" x2="-235.215" y1="42.526" y2="47.805" gradientTransform="translate(-18.852 -14.949)scale(.26458)" gradientUnits="userSpaceOnUse"/><linearGradient id="a"><stop offset="0" style="stop-color:#003bc6;stop-opacity:1"/><stop offset="1" style="stop-color:#0af;stop-opacity:1"/></linearGradient></defs><g style="stroke-width:.0967999"><path d="M-84.894-15.484q-.35.002-.7.017l-.27.018a17 17 0 0 0-.592.044q-.165.016-.328.036a17 17 0 0 0-.875.124 17 17 0 0 0-1.695.38q-.24.068-.476.143-.17.053-.34.11-.245.086-.485.179-.146.053-.29.11-.381.153-.75.327-.364.174-.714.366-.128.072-.251.146-.223.126-.437.26-.134.086-.263.174-.198.13-.39.267l-.26.196a12 12 0 0 0-.596.488 11 11 0 0 0-1.043 1.05q-.15.177-.289.358l-.164.21q-.21.284-.393.578a9 9 0 0 0-.354.63q-.052.104-.1.212-.105.216-.195.434a8 8 0 0 0-.095.255 8 8 0 0 0-.215.676 7.6 7.6 0 0 0-.235 1.37q-.015.222-.016.444a7 7 0 0 0-.003.24q.006.34.043.68.04.34.11.679.025.108.054.217.053.228.12.453.04.127.086.255a8 8 0 0 0 .264.669 8 8 0 0 0 .553 1.033q.073.12.15.238.138.203.287.4l.15.203A10 10 0 0 0-94.857.3l.202.179q.193.173.397.34.12.096.246.19a12 12 0 0 0 .676.482 13 13 0 0 0 1.155.681q.144.078.291.151.25.122.506.234.137.064.275.124.393.166.8.31a15 15 0 0 0 2.027.56A16 16 0 0 0-87 3.769q.235.032.471.057.15.013.3.023.537.044 1.079.054l.27.005q.28 0 .56-.011a17 17 0 0 0 .858-.047q.147-.013.293-.028a17 17 0 0 0 .751-.091 16 16 0 0 0 2.167-.464c3.11-.894 5.637-2.662 7.054-4.931.733-1.179 1.144-2.457 1.208-3.758a4.58 4.58 0 0 0 2.135-2.225c1.053-2.333.09-5.112-2.15-6.208l-.006-.003a4.3 4.3 0 0 0-1.95-.44 4.4 4.4 0 0 0-2.348.743s-.164.105-.233.224a.454.454 0 0 0 .222.614.46.46 0 0 0 .468-.046 3.5 3.5 0 0 1 1.9-.606 3.5 3.5 0 0 1 1.562.353l.004.002c1.795.878 2.566 3.104 1.724 4.973a3.7 3.7 0 0 1-1.349 1.569 3.5 3.5 0 0 1-.894.419c.003.414-.011.715-.032.966A7.3 7.3 0 0 1-74.03-1.96c-1.554 2.493-4.537 4.313-8.096 4.94a16 16 0 0 1-1.99-.55C-90.548.156-93.317-5.618-90.3-10.466c1.137-1.822 2.999-3.331 5.326-4.32l.247-.005a15.3 15.3 0 0 1 4.952.85l.014.005q.31.12.612.254c.18-.34.34-.604.361-.64a15 15 0 0 0-.582-.241l-.015-.006a16.2 16.2 0 0 0-3.859-.834l-.012-.001a17 17 0 0 0-1.637-.08" style="opacity:1;fill:url(#b);fill-opacity:1;stroke-width:1.32239;stroke-linecap:round;stroke-dashoffset:21" transform="translate(1009.461 219.118)scale(10.33062)"/><path d="M-84.21-18.04c-4.538.02-8.727 1.839-11.024 4.788-.098.13-.162.194-.185.303a.5.5 0 0 0 .017.198.45.45 0 0 0 .43.311l.028-.001.071-.01q.396-.052.79-.084c-.992.771-1.807 1.66-2.412 2.632-3.016 4.849-.247 10.621 6.185 12.896a16 16 0 0 0 2.777.7c-2.8-2.862-3.297-6.65-1.295-9.87.944-1.512 2.39-2.815 4.199-3.782a8.6 8.6 0 0 1 1.68 1.827.447.447 0 0 0 .797-.138l.004-.015a8.2 8.2 0 0 1 .901-2.05c1.181-1.897 3.145-3.454 5.598-4.439l.026-.01.073-.04a.46.46 0 0 0 .148-.178l.006-.01q0-.006.004-.01 0-.006.004-.012l.004-.01.003-.011.004-.011.003-.012.003-.01.002-.012.002-.011.003-.012.002-.01.001-.012.001-.012v-.011l.001-.012v-.034l-.002-.023-.001-.012-.002-.011-.002-.011-.005-.023-.003-.011-.003-.011-.003-.011-.004-.011-.008-.022-.005-.01-.004-.01-.005-.011-.006-.01-.005-.01-.006-.01-.006-.01-.006-.01-.007-.01-.006-.008-.008-.01-.014-.017-.008-.01c-.041-.044-.102-.072-.147-.104a13.8 13.8 0 0 0-3.053-1.52l-.015-.004a16.5 16.5 0 0 0-5.517-.916" style="fill:#0af;fill-opacity:1;stroke-width:1.18606;stroke-linecap:round;stroke-dashoffset:21" transform="translate(1009.461 219.118)scale(10.33062)"/></g></svg>