<svg width="2048" height="2048" enable-background="new" version="1.1" viewBox="0 0 2048 2048" xml:space="preserve" xmlns="http://www.w3.org/2000/svg"><circle cx="1024" cy="1024" r="1024" fill="#ff4500" stroke-width="1.19"/><g transform="matrix(1.26 0 0 1.26 -271 -271)" fill="#fff" stroke-width="1.33"><path d="m749 1110c2.4 12.2 4.58 23.1 6.63 34 0.589 3.15 2.73 4.22 5.37 5.16 29.8 10.7 59.6 21.4 89.4 32 3.22 1.13 5.52 2.66 7.51 5.37 5.68 7.72 11.6 15.3 17.4 22.8 1.69 2.18 3.53 4.24 5.3 6.36 0.494-0.192 0.988-0.383 1.48-0.574 0.603-26.7 1.21-53.4 1.82-80.5-45.3-8.31-89.6-16.7-135-24.7m417 105c0.544 0.194 1.09 0.388 1.63 0.581 1.66-2.02 3.38-4 4.98-6.07 6.01-7.81 11.9-15.7 18-23.4 1.56-1.94 3.79-3.79 6.09-4.63 24-8.75 48.1-17.3 72.1-25.9 7.5-2.68 15-5.4 22.7-8.19 2.56-12.3 5.59-24.3 7.08-37.6-45.5 8.38-89.8 16.5-135 24.8 0.635 27.4 1.25 53.9 1.86 80.4m-46.9-195c4.2 1.8 7.98 3.1 11.4 4.99 4.56 2.5 8.81 2.39 13.7 0.735 18.4-6.23 37-12.1 55.5-18.1 13.9-4.5 27.6-10.7 41.9-12.9 14.3-2.24 29.3-0.483 43.9-0.478 0.8 8e-4 1.6 0.0528 2.4 4e-3 2-0.122 4-0.29 6.94-0.51-1.34-2.08-2.1-3.41-3-4.63-4.28-5.79-8.64-11.5-12.9-17.3-1.86-2.54-2.92-5.78-0.334-7.95 1.68-1.41 4.83-1.68 7.23-1.45 2.78 0.27 5.45 1.65 8.17 2.55-2.83-3.86-6.31-6.64-9.8-9.4-3.97-3.14-7.99-6.23-11.9-9.43-2.49-2.03-3.47-4.73-2.57-7.87 0.956-3.32 3.61-4.43 6.75-4.6 2.13-0.114 4.27-0.0504 6.4-0.0528 4.09-5e-3 8.18-3e-3 12.3-3e-3 3.88 0.381 1.48-1.22 0.429-1.87-4.46-2.68-8.66-6.02-13.4-7.9-10.9-4.3-22.1-7.95-33.2-11.7-2.21-0.747-4.7-1.25-7-1.07-14.4 1.12-28.7 2.33-43 3.84-2.72 0.286-5.81 1.41-7.86 3.16-21.6 18.6-43.1 37.4-64.5 56.3-1.83 1.62-3.56 4.25-3.84 6.6-1.48 12.7-2.49 25.4-3.75 39.1m-365-27.6c-2.3 2.34-2.3 1.54 0.713 1.81 2.57 0 5.15 0.0107 7.72-1e-3 12.3-0.0656 24.5-0.339 36.8-0.105 4.71 0.0896 9.58 0.724 14.1 2.14 30.5 9.67 60.8 19.6 91.3 29.4 2.69 0.861 5.93 1.87 8.4 1.12 5.51-1.66 10.7-4.4 16.4-6.85-1.22-12.5-2.59-24.4-3.45-36.3-0.334-4.62-2.04-7.79-5.54-10.8-20.2-17.4-40.4-34.9-60.2-52.6-4.28-3.82-8.83-5.53-14.3-5.95-12.8-0.997-25.5-2.25-38.2-3.14-2.83-0.198-5.88 0.215-8.58 1.11-10.9 3.61-21.7 7.43-32.4 11.3-5.15 1.87-9.43 5.13-13.3 9.23 6.07 0.774 11.9 0.75 17.6 0.783 3.39 0.0192 6.45 0.792 7.64 4.49 1.13 3.5-0.234 6.26-2.97 8.44-5.43 4.31-10.9 8.54-16.3 12.9-1.85 1.48-3.57 3.12-5.34 4.69 3.73-0.121 6.67-1.6 9.74-1.94 2.06-0.23 5.14 0.518 6.23 1.98 1.08 1.44 0.728 4.47 0.11 6.53-0.579 1.93-2.3 3.54-3.57 5.25-4.12 5.53-8.26 11-12.4 16.6m525-297c41.9 29.4 83 58.3 125 87.5 0.831-2.04 1.48-3.21 1.8-4.47 7.24-28.7 14.5-57.3 21.6-86 0.675-2.73 0.703-5.8 0.285-8.6-3.34-22.4-6.84-44.8-10.4-67.2-0.267-1.69-1.09-3.3-1.86-5.53-45.3 28.1-90.1 55.9-136 84.3m-634 87.6c41.8-29.3 82.8-58.2 125-87.6-46.1-28.6-91-56.5-136-84.6-0.503 2.16-0.798 3.16-0.96 4.18-3.62 22.6-7.35 45.2-10.7 67.9-0.566 3.82-0.106 8 0.82 11.8 6.52 26.6 13.3 53.2 20 79.8 0.631 2.5 1.48 4.95 2.58 8.57m746 260c-28.2 5.2-55.9 10.9-83.8 18 4.42 10.4 8.52 19.7 12.2 29.1 1.77 4.49 4.49 7.36 8.9 9.52 25.4 12.4 50.6 25.1 75.9 37.7 1.91 0.951 3.86 1.83 5.67 2.94 2.85 1.76 7.5 8.61 0.849 7.36-7.71-1.24-15.4-2.47-23.8-3.83 0.755 3.45 1.2 5.77 1.77 8.06 5.68 22.5 11.4 44.9 17.1 67.4 0.86 3.37 2.31 6.74-1.76 9.67-2.01-0.846-4.17-1.76-6.87-2.89 0.146 2.93 0.16 5.06 0.37 7.17 1.8 18 3.67 36.1 5.45 54.1 0.349 3.53 1.74 7.37-2.24 10.6-2.94-1.73-5.81-3.41-8.73-5.12-4.5 12-24.6 101-23.9 108 4.96-14 16.1-20.3 25.7-28.2 20.6-17 41.4-33.7 61.8-50.7 4.41-3.68 8.43-8.18 11.6-13 13.7-21 26.5-42.5 40.5-63.3 5.39-8.02 5.5-15.8 4.38-24.4-1.86 1.79-3.47 3.34-5.08 4.88-1.49-1.97-3.11-3.87-4.44-5.94-0.699-1.09-0.911-2.49-1.34-3.75-8.55-25-17.3-49.8-25.5-74.9-2.71-8.25-3.82-14.7-14.2-16.3-1.62-0.567-3.2 0-4.17-4.29 8.63-0.868 16.7 4.25 25.9 2.8-24.3-16.2-48.5-32.4-73.7-49.2 4.32-4.99 10.5-6.82 15.7-10 5.55-3.42 11.3-6.52 17-9.75-3.86-1.3-7.22-1.12-10.6-0.917-15.4 0.956-30.9 1.96-46.3 2.83-1.87 0.105-3.79-0.483-5.68-0.75-0.219-0.617-0.437-1.23-0.655-1.85 4.01-3.57 8.03-7.14 12-10.7m-799 78.9c-2.78 2.22-3.32 1.75-5.98 3.02-6.14 1.94-9.9 5.8-12 12-8.93 27.1-18.4 54-27.6 80.9-0.606 1.76-1.07 3.6-1.92 5.24-1.85 3.58-3.38 3.54-6.28 0.01-0.462-0.561-0.844-1.19-1.39-1.96-2.65 13.5-2.66 13.5 4.07 24.2 13.7 21.6 27.3 43.3 41.1 64.8 2.4 3.73 5.48 7.25 8.89 10.1 23.4 19.4 47 38.6 70.6 57.7 7.07 5.73 14.2 11.2 17.7 20.1 0.338 0.874 1.31 1.5 3.2 3.58-8.73-37.3-17.1-73-25.5-109-3.91 2.15-6.93 3.81-11.7 6.43 0.325-25.8 4.66-49.3 5.99-73.5-2.6 1.35-4.82 2.5-7.05 3.65-4.18-3.75-2.21-7.71-1.28-11.4 5.71-22.7 11.5-45.4 17.3-68.2 0.413-1.63 0.508-3.35 0.821-5.51-2.34 0.21-3.92 0.234-5.45 0.51-4.98 0.898-9.92 2.11-14.9 2.7-1.41 0.168-6.98 1.17-7.3 0.073-0.372-1.26 3.79-5.72 4.95-6.79 1.51-1.39 3.67-2.09 5.58-3.04 25.5-12.7 51.1-25.4 76.5-38.2 2.67-1.35 5.66-3.48 6.87-6.03 4.88-10.3 9.13-20.9 14-32.5-28.2-6.45-55.8-12.8-84.1-19.2 2.84 6.21 10.1 7.27 12.1 14.5-21.4 0.734-41.9-2.82-62.6-2.02 5.37 3.87 11 6.78 16.4 10.1 5.18 3.22 11.5 4.96 15.7 10.1-25.2 16.8-49.6 33.1-74 49.3 0.263 0.536 0.527 1.07 0.791 1.61 4.37-0.966 8.69-2.33 13.1-2.79 4.35-0.454 8.16-1.51 13.3-0.526m165 267c0.71 2.68 1.01 4.43 1.63 6.07 10.1 26.7 20.4 53.3 30.3 80 1.43 3.83 3.83 6.04 7.26 7.92 25.7 14.1 51.4 28.1 77 42.5 5.81 3.27 11.7 4.61 18.2 4.82 25 0.8 50.1 2.03 75.1 2.85 23.4 0.775 46.9 2.16 70.3 1.65 41.3-0.908 82.6-2.98 124-4.82 4.09-0.182 8.49-1.35 12.1-3.29 26.5-14.3 52.8-29 79.2-43.4 3.98-2.17 6.5-4.9 8.11-9.21 9.81-26.2 19.9-52.3 29.8-78.4 0.722-1.9 1.24-3.87 2.35-7.41-3.9 1.82-6.36 3.28-9.02 4.09-1.8 0.551-3.87 0.194-5.82 0.242 0-1.75-0.419-3.63 0.096-5.21 1.15-3.53 2.79-6.91 4.2-10.4 2.08-5.09 4.12-10.2 6.18-15.3-2.92 0.944-4.79 2.65-6.75 4.25-1.9 1.56-3.89 3-7.45 5.73-0.604-7.27-1.04-12.5-1.54-18.5-2.07 3.78-3.63 6.62-6.1 11.1-2.37-3.92-4.01-6.18-5.2-8.65-9.25-19.2-18.5-38.4-27.6-57.7-1.64-3.47-3.72-6.19-6.98-8.4-23.2-15.7-46.3-31.4-69.3-47.4-3.63-2.51-7.02-5.73-9.67-9.25-22.6-30-45.1-60.2-67.6-90.2-1.49-1.99-3.16-3.83-5.67-6.87-1.22 5.42-2.13 9.25-2.94 13.1-0.561 2.66-0.776 6.26-3.98 7.86-4-0.8-4-4.92-4.96-7.22-0.744-1.79-1.37-3.62-2.34-6.2-3.42 6.91-6.33 12.8-9.51 19.2-8.89-5.97-12.3-15.6-20.1-22.2-2 7.82 0.238 15.5-3.24 22.1-0.683 1.45-1.85 0.221-2.05-0.031-7.44-9.2-8.04-21.5-14.3-32-0.807 1.35-1.5 2.15-1.8 3.07-2.07 6.33-3.94 12.7-6.17 19-0.647 1.82-2.27 3.29-3.44 4.92-1.81-1.34-4.17-2.33-5.31-4.1-1.96-3.04-3.15-6.56-5.21-11.1-1.13 3.68-1.56 6.08-2.6 8.17-0.86 1.71-2.2 4.7-3.8 6.3-3.2-2.4-3.85-3.96-4.41-6.54-0.94-4.34-2.08-8.64-3.47-14.3-2.54 3.14-4.39 5.28-6.08 7.54-22.4 29.9-44.7 59.8-67.1 89.6-2.2 2.92-4.78 5.79-7.76 7.85-23.2 16.1-46.6 32-70 47.8-3.92 2.64-6.63 5.77-8.63 10.1-8.89 19.1-18 38-27.2 57-1.18 2.46-2.9 4.66-5.18 8.25-2.36-4.01-3.87-6.59-5.49-9.35-2.67 4.87 0.811 10.9-3.79 15.9-4.01-3.25-7.76-6.29-12.2-9.92 2.16 11.8 10.4 20.9 10.6 33.8-5.47-2.03-9.52-3.54-14.6-5.43m771-348c42.3-5.55 84.1-12.6 126-18 0.378 0.619 0.755 1.24 1.13 1.86-1.39 1.99-2.61 4.14-4.21 5.95-24.1 27.4-48.3 54.9-72.5 82.3-1.69 1.92-3.24 3.96-5.67 6.94 3.27 0.288 5.27 0.569 7.27 0.622 24.5 0.655 49.1 1.24 73.6 1.95 3.04 0.087 6.06 0.803 10.2 1.38-3.5 8.09-9.21 13-13.6 18.9-4.49 5.96-9.34 11.7-14 17.5-4.69 5.81-9.38 11.6-14.1 17.4-4.69 5.81-9.37 11.6-14.1 17.4-4.69 5.81-9.38 11.6-14.1 17.4-4.66 5.79-9.3 11.6-15 18.7 3.39-0.437 5.32-0.503 7.16-0.951 19.7-4.78 39.3-9.63 59-14.5 2.59-0.635 5.15-1.5 7.78-1.79 1.38-0.152 2.88 0.706 4.32 1.11-0.458 1.62-0.491 3.59-1.47 4.78-1.66 2.04-3.91 3.6-5.93 5.34-98.1 84.8-196 170-294 254-6.22 5.4-12.8 8.99-20.5 11.4-57.4 18.1-115 36.5-172 54.8-3.73 1.18-7.78 1.73-11.7 1.91-34.4 1.54-68.8 2.6-103 4.47-29.4 1.6-58.6-0.944-88-1.81-21.6-0.639-43.2-1.68-64.8-2.68-3.4-0.158-6.91-0.631-10.1-1.66-58.9-18.7-118-37.6-177-56.2-6.06-1.91-10.8-5.24-15.4-9.32-35.8-31.2-71.8-62.2-108-93.2-63.4-54.8-127-110-190-164-2.27-1.96-6.61-3.67-4.97-7.28 2.03-4.44 6.18-1.3 9.2-0.587 20.5 4.83 40.9 9.92 61.4 14.9 1.94 0.471 3.94 0.679 7.8 1.33-28.9-36.4-57.2-70.8-84.9-106 0.321-0.663 0.643-1.33 0.965-1.99 3.25-0.437 6.5-1.17 9.76-1.27 24.3-0.71 48.5-1.29 72.8-1.93 2.04-0.054 4.07-0.27 7.47-0.506-2.3-2.9-3.79-4.95-5.46-6.85-24-27.2-48-54.4-71.9-81.7-1.8-2.04-3.26-4.38-4.39-7.38 11-0.819 21.2 1.81 31.6 3.11 10.6 1.34 21.1 3.01 31.7 4.54 10.3 1.49 20.6 2.98 30.9 4.49 10.5 1.55 21.1 3.12 32.1 4.76 0.893-2.17 1.85-3.99 2.42-5.94 9.07-31.2 18.2-62.4 27-93.7 1.03-3.65 1.15-7.92 0.443-11.7-15.3-80.7-30.7-161-46.2-242-0.82-4.28-0.715-8.29 0.439-12.6 15.5-57.6 30.9-115 46.3-173 0.463-1.73 1.16-3.39 1.95-5.66 2.34 0.829 4.31 1.38 6.16 2.21 40.7 18.1 81.3 36.3 122 54.3 4.55 2.01 9.57 3.41 14.5 4.04 28.3 3.59 56.6 6.78 84.9 10.4 3.28 0.415 6.52 2.16 9.5 3.8 42.7 23.5 85.5 47.1 128 70.9 4.88 2.72 9.58 3.91 15.2 3.42 24.7-2.17 49.5-3.67 74.1-6.12 18.5-1.84 36.8 0.473 55.1 1.73 18.1 1.24 36.2 2.71 54.2 4.38 5.58 0.516 10.3-0.622 15.2-3.35 42.4-23.6 84.9-47 127-70.6 4.76-2.65 9.56-4.14 15-4.75 27.8-3.13 55.6-6.54 83.4-10.1 3.88-0.497 7.74-2.01 11.4-3.62 40.9-18.2 81.8-36.5 123-54.7 1.44-0.64 2.9-1.21 4.78-1.99 0.931 1.51 2.06 2.66 2.43 4.03 15.4 57.7 30.7 115 46.3 173 1.43 5.3 1.62 10.2 0.575 15.6-15.3 79.6-30.5 159-45.8 239-0.982 5.11-0.903 9.88 0.578 14.9 8.85 30.2 17.5 60.4 26.2 90.7 0.654 2.27 1.45 4.49 2.43 7.5"/><path d="m1025 1274c19.5 0 38.9 0.444 58.4-0.192 9.35-0.306 14.4 3.93 17.8 11.7 4.37 10 8.64 20.1 12.9 30.1 2.73 6.37 5.39 12.8 8.19 19.1 2.67 6.04 1.74 11.6-2.6 16.3-15.3 16.7-30.7 33.4-46.3 49.8-2.6 2.72-6.57 4.61-10.3 5.73-11.2 3.4-22.5 6.45-34 9.14-3.46 0.817-7.46 0.698-10.9-0.13-11.1-2.65-22.1-5.9-33.2-8.79-4.81-1.25-8.74-3.66-12.1-7.32-14.4-15.7-28.9-31.4-43.5-47-5.28-5.66-6.69-11.6-3.41-19 6.84-15.3 13.3-30.9 19.9-46.3 1.05-2.42 2.55-4.65 3.87-6.95 2.65-4.62 6.6-6.39 12-6.37 16.8 0.064 33.6-0.216 50.4-0.346 4.26-0.033 8.52-0.01 12.8-0.01v0.403"/></g></svg>
